PathFileType	4	(X/Y/Z)	Kaydara																																																																																																																									
DataRate	CameraRate	NumFrames	NumMarkers	Units	OrigDataRate	OrigDataStartFrame	OrigNumFrames																																																																																																																					
30	30	4	41	mm	30	16	144																																																																																																																					
Frame#	Time	EMLA_LFHD			EMLA_RFHD			EMLA_LBHD			EMLA_RBHD			EMLA_LFTShould			EMLA_RFTShould			EMLA_LRRShould			EMLA_RRRShould			EMLA_T10			EMLA_STRN			EMLA_TRUN			EMLA_LSHO			EMLA_LUPA			EMLA_LELB			EMLA_LFRM			EMLA_LWRA			EMLA_LWRB			EMLA_LFIN			EMLA_RSHO			EMLA_RUPA			EMLA_RELB			EMLA_RFRM			EMLA_RWRA			EMLA_RWRB			EMLA_RFIN			EMLA_LFWT			EMLA_RFWT			EMLA_LBWT			EMLA_RBWT			EMLA_LTHI			EMLA_LKNE			EMLA_LSHN			EMLA_LANK			EMLA_LHEE			EMLA_LTOE			EMLA_RTHI			EMLA_RKNE			EMLA_RSHN			EMLA_RANK			EMLA_RHEE			EMLA_RTOE		
		X1	Y1	Z1	X2	Y2	Z2	X3	Y3	Z3	X4	Y4	Z4	X5	Y5	Z5	X6	Y6	Z6	X7	Y7	Z7	X8	Y8	Z8	X9	Y9	Z9	X10	Y10	Z10	X11	Y11	Z11	X12	Y12	Z12	X13	Y13	Z13	X14	Y14	Z14	X15	Y15	Z15	X16	Y16	Z16	X17	Y17	Z17	X18	Y18	Z18	X19	Y19	Z19	X20	Y20	Z20	X21	Y21	Z21	X22	Y22	Z22	X23	Y23	Z23	X24	Y24	Z24	X25	Y25	Z25	X26	Y26	Z26	X27	Y27	Z27	X28	Y28	Z28	X29	Y29	Z29	X30	Y30	Z30	X31	Y31	Z31	X32	Y32	Z32	X33	Y33	Z33	X34	Y34	Z34	X35	Y35	Z35	X36	Y36	Z36	X37	Y37	Z37	X38	Y38	Z38	X39	Y39	Z39	X40	Y40	Z40	X41	Y41	Z41
																																																																																																																												
1	0.5	274.62406	1637.96906	-1892.6181	104.77083	1637.9863	-1896.11298	291.28201	1626.604	-2043.12195	96.60624	1629.61807	-2048.75534	272.58545	1407.55219	-1944.16885	123.76091	1399.45908	-1942.26227	266.28992	1446.70197	-2094.51904	107.81095	1438.99658	-2091.69144	198.23589	1270.48828	-2131.04828	196.78135	1339.78043	-1902.12067	191.35706	1237.81494	-1877.59247	397.16038	1425.08774	-1997.45499	451.65688	1241.74355	-2005.73944	467.9958	1097.98416	-2005.01236	465.33318	961.03287	-1992.61017	383.62331	825.33585	-1900.48492	436.65756	799.96506	-1961.04172	433.03421	771.43791	-1897.67654	0.50229	1424.59366	-2004.16	-54.60812	1232.59933	-1989.4281	-67.52419	1084.80125	-1997.12708	-69.61859	984.78996	-2001.60858	-9.03525	825.68741	-1892.98447	-54.72248	799.72488	-1964.59595	-67.3541	776.90048	-1904.78287	290.71003	987.75452	-1898.19672	56.93974	980.32585	-1921.39847	277.37329	1016.27304	-2098.47504	101.23984	1019.10675	-2099.89258	315.34367	729.47006	-2093.42438	314.85571	524.52332	-2058.68973	284.13046	342.89734	-2049.42139	283.26672	165.31818	-2121.69556	216.55727	85.33825	-2180.73395	246.94012	73.92696	-1982.10312	67.9664	718.33824	-2118.41965	33.40006	515.80189	-2057.73926	77.57312	293.12922	-2052.3233	40.89983	131.86131	-2133.33466	96.8609	77.89781	-2186.10199	67.52258	71.33215	-1985.06882
2	0.533	274.09536	1637.92343	-1892.64236	104.39703	1637.97287	-1896.16013	290.90466	1626.59286	-2043.24356	96.17371	1629.59549	-2048.81378	272.26721	1407.46033	-1944.48227	123.22242	1399.05838	-1942.34726	265.79365	1446.74774	-2094.75266	107.32288	1438.92899	-2091.8187	197.77042	1270.50095	-2131.28418	196.44154	1339.63089	-1902.41608	191.1977	1237.62512	-1877.94296	396.75133	1425.07706	-1997.78381	451.30066	1241.72356	-2006.18561	467.74788	1098.00484	-2005.53589	465.17284	961.00433	-1993.14301	383.70667	825.22224	-1901.04446	436.6972	799.95346	-1961.60538	433.16292	771.38023	-1898.21869	0.10648	1424.39392	-2004.24927	-55.00202	1232.38739	-1989.54956	-67.9194	1084.58717	-1997.20505	-69.84464	984.49928	-2001.64856	-9.05032	825.51682	-1893.09326	-52.6505	797.24991	-1964.09271	-67.40247	776.71104	-1904.69254	290.5814	987.77184	-1898.53394	56.74229	980.21568	-1921.548	277.02425	1016.27708	-2098.78448	100.84237	1019.05235	-2100.02747	315.01209	729.44649	-2093.60901	314.67476	524.53518	-2058.79425	284.0131	342.94086	-2049.43832	283.22094	165.45139	-2121.49796	216.49055	85.37338	-2180.72388	246.93619	73.90164	-1982.09778	67.67369	718.29903	-2118.46161	33.24298	515.79994	-2057.81006	77.49278	293.13223	-2052.38708	40.84376	131.80644	-2133.3342	96.78059	77.9742	-2186.12061	67.51346	71.33218	-1985.07034
3	0.567	273.69661	1637.8363	-1892.71469	104.07852	1637.83676	-1896.147	290.40249	1626.67542	-2043.29559	95.74592	1629.6698	-2048.83179	271.84311	1407.38983	-1944.76852	122.74533	1398.82324	-1942.53448	265.31134	1446.65802	-2094.86664	106.85781	1438.87802	-2091.94412	197.30736	1270.49866	-2131.52359	196.25185	1339.5549	-1902.68372	190.9635	1237.57912	-1878.18649	396.37764	1425.08911	-1998.21365	450.89771	1241.7662	-2006.5773	467.48512	1098.06786	-2006.01517	465.0153	961.09291	-1993.67523	383.69453	825.14984	-1901.50497	436.64818	799.95193	-1962.17651	433.18714	771.37878	-1898.81149	-0.2883	1424.22882	-2004.28909	-55.30444	1232.20131	-1989.69131	-68.16914	1084.39774	-1997.22992	-70.12568	984.31587	-2001.67953	-9.14357	825.38437	-1893.09113	-53.01049	797.39571	-1963.61176	-67.47214	776.54663	-1904.67072	290.38963	987.91321	-1898.90244	56.64553	980.38475	-1921.55746	276.64494	1016.28723	-2099.05212	100.45731	1019.02321	-2100.17456	314.78962	729.47342	-2093.81042	314.54702	524.66213	-2058.9534	283.90532	342.98889	-2049.48502	283.18972	165.50606	-2121.50513	216.49292	85.40689	-2180.70007	246.91818	73.90933	-1982.09091	67.41685	718.32642	-2118.57101	33.11047	515.78667	-2057.8891	77.47092	293.13705	-2052.45972	40.83434	131.79497	-2133.35388	96.77452	77.92763	-2186.19675	67.51749	71.33002	-1985.07233
4	0.6	273.45739	1637.79404	-1892.8183	103.74155	1637.8038	-1896.12457	289.9437	1626.78177	-2043.38898	95.28543	1629.78455	-2048.77167	271.55222	1407.43988	-1945.08942	122.33261	1398.70636	-1942.78427	264.8255	1446.58829	-2095.05447	106.44072	1438.83224	-2092.05246	196.87174	1270.45555	-2131.69342	196.17895	1339.76593	-1903.09906	190.74623	1237.5415	-1878.43674	395.97759	1425.13428	-1998.60565	450.60436	1241.85776	-2007.14966	467.25258	1098.14926	-2006.57944	464.8407	961.18721	-1994.2453	383.60619	825.16037	-1902.01187	436.57417	800.03601	-1962.73712	433.10978	771.41815	-1899.31412	-0.66642	1424.19098	-2004.38873	-55.51774	1232.03331	-1989.62601	-68.34677	1084.27574	-1997.30118	-70.32308	984.23599	-2001.79459	-9.31586	825.26062	-1893.17947	-53.06812	797.46498	-1963.67905	-67.55131	776.48308	-1904.7789	290.24424	987.94731	-1899.31427	56.33632	980.11429	-1921.74744	276.2673	1016.33896	-2099.39575	100.10143	1018.92715	-2100.23804	314.81455	729.57291	-2094.08417	314.48416	524.66377	-2059.02374	283.83488	343.03307	-2049.49921	283.19386	165.4488	-2121.5329	216.56506	85.39198	-2180.72662	246.89003	73.9038	-1982.1286	67.27311	718.22357	-2118.63434	32.91129	515.68123	-2057.97607	77.39066	293.04432	-2052.54547	40.76308	131.71003	-2133.38959	96.76199	77.68793	-2186.12259	67.5752	71.31592	-1985.09811
